<svg width="40" height="40" viewBox="0 0 40 40" fill="none" xmlns="http://www.w3.org/2000/svg">
  <circle cx="20" cy="20" r="20" fill="#8247E5"/>
  <path d="M26.5 14.5C26.1 14.3 25.6 14.3 25.2 14.5L21 16.9L18.2 18.5L14 20.9C13.6 21.1 13.1 21.1 12.7 20.9L9.5 19C9.1 18.8 8.8 18.4 8.8 17.9V14.3C8.8 13.8 9 13.4 9.5 13.2L12.7 11.3C13.1 11.1 13.6 11.1 14 11.3L17.2 13.2C17.6 13.4 17.9 13.8 17.9 14.3V16.7L21 14.9V12.5C21 12 20.8 11.6 20.3 11.4L14.1 8.1C13.7 7.9 13.2 7.9 12.8 8.1L6.5 11.5C6 11.7 5.8 12.1 5.8 12.6V19.4C5.8 19.9 6 20.3 6.5 20.5L12.8 23.8C13.2 24 13.7 24 14.1 23.8L18.2 21.5L21 19.7L25.2 17.4C25.6 17.2 26.1 17.2 26.5 17.4L29.7 19.3C30.1 19.5 30.4 19.9 30.4 20.4V24C30.4 24.5 30.2 24.9 29.7 25.1L26.5 27C26.1 27.2 25.6 27.2 25.2 27L22 25.1C21.6 24.9 21.3 24.5 21.3 24V21.6L18.2 23.4V25.8C18.2 26.3 18.4 26.7 18.9 26.9L25.2 30.2C25.6 30.4 26.1 30.4 26.5 30.2L32.8 26.9C33.2 26.7 33.5 26.3 33.5 25.8V19C33.5 18.5 33.3 18.1 32.8 17.9L26.5 14.5Z" fill="white"/>
</svg>
