<svg width="40" height="40" viewBox="0 0 40 40" fill="none" xmlns="http://www.w3.org/2000/svg">
  <circle cx="20" cy="20" r="20" fill="#26A17B"/>
  <path d="M22 13H18V16H16V18H18V19C16.895 19.03 16 19.124 16 19.5C16 19.876 16.895 19.97 18 20V26H22V20C23.105 19.97 24 19.876 24 19.5C24 19.124 23.105 19.03 22 19V18H24V16H22V13Z" fill="white"/>
  <path d="M20 19.2C17.79 19.2 16 18.864 16 18.45C16 18.036 17.79 17.7 20 17.7C22.21 17.7 24 18.036 24 18.45C24 18.864 22.21 19.2 20 19.2Z" fill="white"/>
</svg>
